<?xml version="1.0" encoding="UTF-8"?>
<!DOCTYPE svg PUBLIC "-//W3C//DTD SVG 1.1//EN" "http://www.w3.org/Graphics/SVG/1.1/DTD/svg11.dtd">
<!-- Creator: CorelDRAW -->
<svg xmlns="http://www.w3.org/2000/svg" xml:space="preserve" width="56.4mm" height="24.7mm" version="1.1" style="shape-rendering:geometricPrecision; text-rendering:geometricPrecision; image-rendering:optimizeQuality; fill-rule:evenodd; clip-rule:evenodd"
viewBox="0 0 5640 2470"
 xmlns:xlink="http://www.w3.org/1999/xlink"
 xmlns:xodm="http://www.corel.com/coreldraw/odm/2003">
 <defs>
  <style type="text/css">
   <![CDATA[
    .str5 {stroke:#006D33;stroke-width:20;stroke-miterlimit:22.9256}
    .str3 {stroke:#007F92;stroke-width:20;stroke-miterlimit:22.9256}
    .str2 {stroke:#00A547;stroke-width:20;stroke-miterlimit:22.9256}
    .str1 {stroke:#00A8D7;stroke-width:20;stroke-miterlimit:22.9256}
    .str6 {stroke:#2C2A2A;stroke-width:20;stroke-miterlimit:22.9256}
    .str4 {stroke:#906E0F;stroke-width:20;stroke-miterlimit:22.9256}
    .str0 {stroke:#F7A400;stroke-width:20;stroke-miterlimit:22.9256}
    .fil8 {fill:none}
    .fil7 {fill:#006D33}
    .fil5 {fill:#007F92}
    .fil4 {fill:#00A547}
    .fil3 {fill:#00A8D7}
    .fil6 {fill:#906E0F}
    .fil2 {fill:#F7A400}
    .fil1 {fill:#FAFEFD}
    .fil0 {fill:white}
   ]]>
  </style>
 </defs>
 <g id="Camada_x0020_1">
  <metadata id="CorelCorpID_0Corel-Layer"/>
  <g id="_1775715277760">
   <g>
    <path class="fil0" d="M4314.17 1349.34c-127.18,0 -105.58,-113.71 -105.58,-251.02 0,-101.54 43.65,-120.49 115.63,-120.49 108.04,0 90.49,142.93 90.49,235.96 0,79.69 -19.97,135.55 -100.54,135.55zm-226.23 -205.84c0,145.48 16.49,301.23 196.06,301.23 87.8,0 160.88,-0.93 210.34,-76.11 33.17,-50.41 35.29,-126.63 39.39,-201.12 0.69,-12.63 -4.49,-98.24 -6.99,-110.77 -30.21,-151.57 -89.2,-174.29 -242.74,-174.29 -69.84,0 -124.48,29.37 -153.81,72.32 -28.45,41.67 -42.25,120.2 -42.25,188.74z"/>
    <path class="fil0" d="M3167.94 1007.95c17.07,12.49 2.04,-6.41 19.46,45.83 13.58,40.73 36.17,129.3 50.92,160.01l-130.71 0c11.09,-47.52 57.28,-169.28 60.33,-205.84zm-246.34 431.76l120.66 0c3.09,-37.1 34.43,-101.59 35.19,-135.55l175.96 0c16.66,0 15.87,12.5 19.37,25.83 4.08,15.57 5.94,22.69 10.13,35.07 6.22,18.36 19.16,55.34 20.77,74.65l125.68 0c-3.41,-14.62 -6.49,-20.25 -11.37,-33.83 -4.67,-12.96 -9.25,-27.71 -12.52,-37.7 -24.04,-73.38 -133.5,-411.25 -155.86,-446.8 -30.76,-48.89 -101.6,-56.33 -145.72,-2.49 -19.4,23.67 -116.11,319.99 -132.65,369.57l-38.28 112.38c-5.6,15.43 -9.8,20.17 -11.36,38.87z"/>
    <path class="fil0" d="M4600.72 1038.08c0,122.66 85.06,145.55 177.85,173.82 15.39,4.68 28.85,11.12 41.95,18.35 42.59,23.5 46.02,119.09 -48.87,119.09 -60.7,0 -103.51,-10.04 -160.87,-10.04 0,30.4 -7.76,62.78 -10.06,90.37 61.57,1.37 216.06,45.55 308.88,-17.87 58.31,-39.84 58.11,-91.8 58.11,-152.83 0,-96.48 -75.66,-131.82 -154.78,-151.67 -39.95,-10.02 -82.25,-15.87 -93.27,-57.95 -28.82,-110.06 182.16,-61.48 232.97,-61.48 0,-80.67 24.03,-85.5 -11.56,-93.53 -56.63,-12.78 -107.04,-11.9 -164.39,-11.9 -107.78,0 -175.96,47.98 -175.96,155.64z"/>
    <path class="fil0" d="M3705.86 902.52l0 381.56c0,190.04 132.6,155.63 336.83,155.63l0 -95.39 -175.95 0c-24.32,0 -40.22,-15.88 -40.22,-40.16l0 -416.7c-71.02,0 -120.66,-10.79 -120.66,15.06z"/>
    <path class="fil0" d="M3489.69 1439.71l100.54 0c11.59,0 15.09,-3.5 15.09,-15.06l0 -537.19 -115.63 0 0 552.25z"/>
   </g>
   <g>
    <path class="fil1" d="M1785.1 1428.52c-85.37,0 -23.3,-79.88 -11.04,-132.49 4.1,5.9 0.68,-0.71 5.82,10.74l13.88 35.8c4.81,11.98 18.94,43.31 18.94,52.83 0,14.07 -11.94,33.12 -27.6,33.12zm-104.89 -38.64l6.46 44 -67.19 0.16 0 165.61c0,19.63 -10.75,16.57 -33.12,16.57 -21.44,0 -16.04,-16.93 -18.55,-36.66l-3.53 -145.52c-199.12,0 -209.72,10.97 -159.31,-115.14 19.75,-49.39 39.13,-102.87 61.82,-153.48 23.25,-51.86 40.24,-100.21 62.82,-152.48 10.76,-24.94 48.03,-133.03 67.79,-147.51 1.77,21.32 24.63,68.46 33.28,88.18l110.25 259.61c0,29.72 -64.58,153.8 -60.72,176.66zm276.02 -524.45c17.24,12.63 53.85,118.1 64.66,145.12l123.19 301.89c60.23,137.12 34.61,121.6 -160.25,121.6l0 176.65c-71.19,16.59 -55.2,6.51 -55.2,-176.65l-60.73 0c0,-176.51 -82.99,-177.17 -48.05,-246.52 10.76,-21.35 19.21,-42.72 28.37,-65.75l80.25 -190.24c7.79,-17.8 23.81,-49.17 27.76,-66.1zm-634.85 518.93l0 27.6c0,37.45 47.4,77.28 82.81,77.28l104.88 0c0,134.68 -17.42,182.18 99.37,182.18 90.23,0 71.77,-97.03 71.77,-182.18l187.69 0c0,52.95 -17.73,182.18 66.25,182.18 126.9,0 110.41,-37.63 110.41,-182.18 82.09,0 187.69,17.44 187.69,-99.36 0,-31.89 -157.11,-403.63 -181.38,-464.51 -29.75,-74.61 -44.15,-137.22 -100.16,-137.22 -27.07,0 -45.34,51.13 -55.23,71.74 -20.18,42.04 -107.65,240.62 -115.91,276.05 -20.47,-15.01 -109.13,-239.23 -121.44,-270.51 -17.84,-45.3 -27.54,-77.28 -66.25,-77.28 -34.96,0 -40.92,26.05 -53.44,51.44 -31.74,64.33 -217.06,512.3 -217.06,544.77z"/>
   </g>
   <path class="fil2 str0" d="M1405.93 301.18c719.14,-500.33 1629.59,190.92 1307.34,1032.71 -36.6,-219.22 -120.5,-369.71 -231.92,-480.23 -92.57,-165.23 -190.39,-263.59 -290.05,-323.93 -108.43,-71.55 -205.44,-101.27 -294.94,-115.27 -176.76,-111.39 -404.57,-120.33 -490.43,-113.28z"/>
   <path class="fil3 str1" d="M2712.97 1334.65c91.41,849.41 -945.98,1342.18 -1539.81,638.88 224.07,67.12 361.07,62.55 518.61,20.33 176.37,15.78 346.32,-31.16 446.05,-89.42 113.7,-69.23 136.38,-95.25 208.34,-163.35 193.15,-87.15 333.17,-327.79 366.81,-406.44z"/>
   <path class="fil4 str2" d="M1172.38 1973.22c-833.13,-334.91 -733.93,-1561.71 233.55,-1672.04 -174.48,135.54 -288.53,329.01 -318.01,472.09 -61.21,87.09 -124.48,261.95 -124.84,441.88 -0.14,71.46 9.64,143.72 33.41,211.6 -14.8,256.37 128.21,479.43 175.89,546.47z"/>
   <path class="fil5 str3" d="M998.03 1426.64c-12.48,171.14 54.11,389.66 174.88,546.04 141.44,36.03 282.7,87.36 518.77,20.28 -291.34,-24.46 -596.27,-229.12 -693.65,-566.32z"/>
   <path class="fil6 str4" d="M2346.16 1741.09c154.74,-78.88 283.88,-233.05 366.99,-407.93 -22.14,-103.69 -56.34,-307.9 -231.8,-479.5 123.45,265.03 109.13,635.45 -135.19,887.43z"/>
   <path class="fil7 str5" d="M1087.92 773.27c175.23,-283.97 522.05,-415.45 808.44,-358.81 -163.6,-109.55 -413.1,-122.01 -490.43,-113.28 -194.94,150.39 -307.88,383.41 -318.01,472.09z"/>
  </g>
  <path class="fil8 str6" d="M66648.11 65795.73c-129.52,-59.46 -232.32,-146.7 -313.37,-255.83 -270.9,-364.69 -202.2,-681.83 -205.03,-1101.27 -2.77,-408.1 -24.37,-656.56 -25.97,-1095.61 -0.38,-110.75 13.75,-89.53 -102.01,-85.94 -697.64,21.68 -1337.58,60.13 -1803.51,-92.27 -400.52,-131.02 -710.52,-485.49 -806.96,-894.52 -114.75,-607.83 20.88,-805.36 241.6,-1341.06 530.7,-1287.91 977.83,-2455.63 1363.42,-3475.86 845.75,-1939.21 1326.26,-3370.47 1738.54,-4054.64 60.09,-99.71 106.47,-170.12 192.2,-249.24 384.96,-355.26 719.78,-163.6 988.01,259.44 368.39,655.22 880.44,2157.07 1302.45,3018.96 277.19,560.85 505.5,1173.83 764.93,1745.64 12.56,27.71 25.63,28.85 41.84,-5.04 653.93,-1367.57 1400.56,-3366.91 1921.79,-4464.38 358.42,-641.79 776.38,-1057.85 1333.68,-331.43 470.8,717.2 980.59,2445.46 2238.21,5370.08 334.01,728.27 658.35,1511.67 956.2,2371.71 191.54,553.03 343.71,893.73 19.85,1461 -118.34,207.31 -293.04,381.99 -533.35,518.24 -686.66,240.33 -1450.49,144.25 -1883.15,139.72 -227.43,-2.36 -182.55,-4.62 -179.61,213.64 5.46,405.46 8.79,799.63 17.24,1161.56 9.22,396.29 -14.74,755.76 -323.5,1058.18 -292.75,286.76 -888.93,359.87 -1366.49,225.84 -240.81,-67.59 -451.47,-187.85 -577.85,-359.97 -120.46,-82.37 -182.88,-295.68 -213.81,-564.17 -59.23,-514.17 -3,-1230.76 -17.72,-1617.7 -5,-131.41 15.79,-107.46 -119.84,-106.45 -822.73,6.27 -1645.48,12.59 -2468.21,18.84 -222.94,1.69 -220.17,-49.62 -217.8,155.63 13.53,1152.21 158.38,2162.77 -669.5,2436.45 -346.49,114.54 -959.07,93.43 -1292.28,-59.55z"/>
  <path class="fil8 str6" d="M53859.41 46047.78c30.44,870.13 -30.74,1776.28 -5.7,2535.75 143.01,199.03 423.09,185.09 646.26,162.67 177.95,-17.89 259.81,-123.5 272.46,-438.75 16.29,-405.71 -5.72,-874.88 -1.57,-1294.02 3.09,-312.14 1.84,-639.3 2.82,-958.72 900.41,-108.51 1800.82,-217.03 2701.23,-325.54 -1048.17,-2708.16 -2096.34,-5416.31 -3144.51,-8124.47 -754.96,1740.8 -1509.92,3481.59 -2264.88,5222.38 325.53,895.79 842.17,1947.78 940.64,2687.38 98.47,739.6 -278.07,514.25 -1.35,547.05 130.9,15.51 387.96,7.04 854.6,-13.73z"/>
 </g>
</svg>
