<?xml version="1.0" encoding="UTF-8"?>
<!DOCTYPE svg PUBLIC "-//W3C//DTD SVG 1.1//EN" "http://www.w3.org/Graphics/SVG/1.1/DTD/svg11.dtd">
<!-- Creator: CorelDRAW (Versão de avaliação) -->
<svg xmlns="http://www.w3.org/2000/svg" xml:space="preserve" width="400mm" height="400mm" version="1.1" style="shape-rendering:geometricPrecision; text-rendering:geometricPrecision; image-rendering:optimizeQuality; fill-rule:evenodd; clip-rule:evenodd"
viewBox="0 0 40000 40000"
 xmlns:xlink="http://www.w3.org/1999/xlink"
 xmlns:xodm="http://www.corel.com/coreldraw/odm/2003">
 <defs>
  <style type="text/css">
   <![CDATA[
    .str6 {stroke:#2C2A2A;stroke-width:20;stroke-miterlimit:22.9256}
    .str5 {stroke:#006D33;stroke-width:20;stroke-miterlimit:22.9256}
    .str3 {stroke:#007F92;stroke-width:20;stroke-miterlimit:22.9256}
    .str2 {stroke:#00A547;stroke-width:20;stroke-miterlimit:22.9256}
    .str1 {stroke:#00A8D7;stroke-width:20;stroke-miterlimit:22.9256}
    .str4 {stroke:#906E0F;stroke-width:20;stroke-miterlimit:22.9256}
    .str0 {stroke:#F7A400;stroke-width:20;stroke-miterlimit:22.9256}
    .fil8 {fill:none}
    .fil7 {fill:#006D33}
    .fil5 {fill:#007F92}
    .fil4 {fill:#00A547}
    .fil3 {fill:#00A8D7}
    .fil6 {fill:#906E0F}
    .fil2 {fill:#F7A400}
    .fil1 {fill:#FAFEFD}
    .fil0 {fill:white}
   ]]>
  </style>
 </defs>
 <g id="Camada_x0020_1">
  <metadata id="CorelCorpID_0Corel-Layer"/>
  <image x="93771.24" y="61153.82" width="35332.8" height="35332.8" xlink:href="AIlos_Images\AIlos_ImgID1.png"/>
  <g id="_1775715277760">
   <g>
    <path class="fil0" d="M31928.6 22227.29c-1024.89,0 -850.77,-916.33 -850.77,-2022.88 0,-818.28 351.7,-970.97 931.79,-970.97 870.69,0 729.24,1151.84 729.24,1901.5 0,642.2 -160.98,1092.35 -810.26,1092.35zm-1823.09 -1658.76c0,1172.32 132.88,2427.45 1580.01,2427.45 707.5,0 1296.43,-7.44 1695.07,-613.32 267.29,-406.24 284.37,-1020.45 317.38,-1620.76 5.6,-101.76 -36.15,-791.68 -56.29,-892.66 -243.45,-1221.42 -718.87,-1404.5 -1956.16,-1404.5 -562.86,0 -1003.11,236.66 -1239.5,582.8 -229.31,335.79 -340.51,968.61 -340.51,1520.99z"/>
    <path class="fil0" d="M22691.62 19476.18c137.55,100.64 16.41,-51.72 156.82,369.34 109.44,328.2 291.47,1041.97 410.36,1289.42l-1053.34 0c89.34,-382.93 461.6,-1364.15 486.16,-1658.76zm-1985.14 3479.35l972.31 0c24.92,-298.98 277.48,-818.63 283.59,-1092.36l1417.96 0c134.29,0 127.95,100.73 156.12,208.22 32.87,125.41 47.86,182.79 81.67,282.55 50.14,147.96 154.37,446 167.34,601.59l1012.82 0c-27.47,-117.82 -52.3,-163.19 -91.64,-272.59 -37.58,-104.5 -74.5,-223.32 -100.87,-303.85 -193.71,-591.3 -1075.85,-3314.1 -1256.05,-3600.57 -247.83,-394.01 -818.73,-453.97 -1174.3,-20.1 -156.34,190.76 -935.66,2578.68 -1068.97,2978.22l-308.47 905.7c-45.09,124.32 -78.96,162.52 -91.51,313.19z"/>
    <path class="fil0" d="M34237.84 19718.93c0,988.51 685.43,1172.95 1433.25,1400.74 123.99,37.76 232.43,89.64 338.04,147.91 343.21,189.37 370.88,959.71 -393.84,959.71 -489.13,0 -834.13,-80.92 -1296.42,-80.92 0,244.99 -62.51,505.94 -81.03,728.24 496.13,11.04 1741.17,367.11 2489.17,-143.99 469.88,-321.06 468.28,-739.8 468.28,-1231.57 0,-777.53 -609.72,-1062.31 -1247.33,-1222.27 -321.98,-80.78 -662.81,-127.9 -751.6,-466.96 -232.26,-886.95 1467.93,-495.47 1877.4,-495.47 0,-650.08 193.6,-689.05 -93.21,-753.76 -456.3,-102.94 -862.54,-95.85 -1324.75,-95.85 -868.51,0 -1417.96,386.59 -1417.96,1254.19z"/>
    <path class="fil0" d="M27026.52 18626.57l0 3074.77c0,1531.49 1068.56,1254.19 2714.37,1254.19l0 -768.7 -1417.95 0c-195.98,0 -324.11,-127.97 -324.11,-323.66l0 -3357.97c-572.28,0 -972.31,-86.96 -972.31,121.37z"/>
    <path class="fil0" d="M25284.45 22955.53l810.26 0c93.36,0 121.55,-28.16 121.55,-121.38l0 -4328.95 -931.81 0 0 4450.33z"/>
   </g>
   <g>
    <path class="fil1" d="M11547.8 22865.37c-687.9,0 -187.75,-643.76 -88.97,-1067.7 33.04,47.55 5.48,-5.73 46.9,86.55l111.92 288.47c38.76,96.6 152.58,349.04 152.58,425.75 0,113.37 -96.19,266.93 -222.43,266.93zm-845.26 -311.42l52.09 354.62 -541.45 1.27 0 1334.63c0,158.16 -86.68,133.46 -266.92,133.46 -172.78,0 -129.26,-136.41 -149.46,-295.4l-28.49 -1172.69c-1604.58,0 -1690.06,88.43 -1283.77,-927.85 159.11,-397.99 315.3,-828.96 498.17,-1236.85 187.38,-417.95 324.25,-807.53 506.19,-1228.81 86.77,-200.94 387.13,-1072.01 546.34,-1188.66 14.28,171.76 198.46,551.64 268.15,710.56l888.51 2092.13c0,239.46 -520.47,1239.4 -489.36,1423.59zm2224.36 -4226.28c138.93,101.78 433.93,951.71 521.07,1169.44l992.74 2432.78c485.35,1105.03 278.88,979.95 -1291.37,979.95l0 1423.6c-573.72,133.66 -444.88,52.46 -444.88,-1423.6l-489.35 0c0,-1422.45 -668.81,-1427.75 -387.26,-1986.59 86.7,-172.06 154.86,-344.25 228.63,-529.85l646.75 -1533.12c62.77,-143.37 191.88,-396.17 223.67,-532.61zm-5116.03 4181.8l0 222.43c0,301.83 382.04,622.82 667.32,622.82l845.24 0c0,1085.29 -140.43,1468.08 800.77,1468.08 727.15,0 578.34,-781.95 578.34,-1468.08l1512.57 0c0,426.65 -142.93,1468.08 533.84,1468.08 1022.62,0 889.75,-303.24 889.75,-1468.08 661.59,0 1512.56,140.47 1512.56,-800.77 0,-256.97 -1266.11,-3252.65 -1461.71,-3743.28 -239.73,-601.27 -355.8,-1105.82 -807.14,-1105.82 -218.13,0 -365.34,412.09 -445.04,578.16 -162.61,338.79 -867.56,1939.06 -934.06,2224.54 -165.03,-120.93 -879.44,-1927.8 -978.71,-2179.89 -143.76,-365.05 -221.92,-622.81 -533.85,-622.81 -281.74,0 -329.72,209.92 -430.68,414.57 -255.77,518.43 -1749.2,4128.45 -1749.2,4390.05z"/>
   </g>
   <path class="fil2 str0" d="M8492.24 13780.57c5795.26,-4031.93 13132.25,1538.57 10535.35,8322.17 -294.96,-1766.54 -971.05,-2979.35 -1868.91,-3869.91 -746,-1331.54 -1534.29,-2124.22 -2337.44,-2610.47 -873.79,-576.6 -1655.52,-816.11 -2376.82,-928.92 -1424.41,-897.65 -3260.28,-969.69 -3952.18,-912.87z"/>
   <path class="fil3 str1" d="M19025.16 22108.93c736.69,6845.06 -7623.23,10816.05 -12408.72,5148.46 1805.72,540.89 2909.77,504.03 4179.26,163.84 1421.35,127.18 2790.89,-251.09 3594.57,-720.57 916.29,-557.9 1099.07,-767.65 1678.92,-1316.43 1556.55,-702.3 2684.88,-2641.54 2955.97,-3275.3z"/>
   <path class="fil4 str2" d="M6610.18 27254.89c-6713.88,-2698.91 -5914.47,-12585.18 1882.06,-13474.32 -1406.09,1092.27 -2325.14,2651.38 -2562.69,3804.4 -493.29,701.83 -1003.18,2110.95 -1006.08,3560.91 -1.14,575.89 77.68,1158.23 269.29,1705.25 -119.27,2065.93 1033.14,3863.49 1417.42,4403.76z"/>
   <path class="fil5 str3" d="M5205.11 22850.23c-100.55,1379.13 436.06,3140.12 1409.36,4400.34 1139.81,290.3 2278.11,703.96 4180.49,163.43 -2347.78,-197.16 -4805.11,-1846.42 -5589.85,-4563.77z"/>
   <path class="fil6 str4" d="M16069.18 25384.23c1246.99,-635.68 2287.71,-1878.03 2957.43,-3287.34 -178.37,-835.58 -454.04,-2481.27 -1867.94,-3864.07 994.79,2135.73 879.4,5120.82 -1089.49,7151.41z"/>
   <path class="fil7 str5" d="M5929.55 17584.97c1412.06,-2288.39 4206.96,-3348 6514.87,-2891.53 -1318.41,-882.8 -3329.03,-983.26 -3952.18,-912.87 -1570.93,1211.96 -2481.05,3089.73 -2562.69,3804.4z"/>
  </g>
  <path class="fil8 str6" d="M83828.11 84560.73c-129.52,-59.46 -232.32,-146.7 -313.37,-255.83 -270.9,-364.69 -202.2,-681.83 -205.03,-1101.27 -2.77,-408.1 -24.37,-656.56 -25.97,-1095.61 -0.38,-110.75 13.75,-89.53 -102.01,-85.94 -697.64,21.68 -1337.58,60.13 -1803.51,-92.27 -400.52,-131.02 -710.52,-485.49 -806.96,-894.52 -114.75,-607.83 20.88,-805.36 241.6,-1341.06 530.7,-1287.91 977.83,-2455.63 1363.42,-3475.86 845.75,-1939.21 1326.26,-3370.47 1738.54,-4054.64 60.09,-99.71 106.47,-170.12 192.2,-249.24 384.96,-355.26 719.78,-163.6 988.01,259.44 368.39,655.22 880.44,2157.07 1302.45,3018.96 277.19,560.85 505.5,1173.83 764.93,1745.64 12.56,27.71 25.63,28.85 41.84,-5.04 653.93,-1367.57 1400.56,-3366.91 1921.79,-4464.38 358.42,-641.79 776.38,-1057.85 1333.68,-331.43 470.8,717.2 980.59,2445.46 2238.21,5370.08 334.01,728.27 658.35,1511.67 956.2,2371.71 191.54,553.03 343.71,893.73 19.85,1461 -118.34,207.31 -293.04,381.99 -533.35,518.24 -686.66,240.33 -1450.49,144.25 -1883.15,139.72 -227.43,-2.36 -182.55,-4.62 -179.61,213.64 5.46,405.46 8.79,799.63 17.24,1161.56 9.22,396.29 -14.74,755.76 -323.5,1058.18 -292.75,286.76 -888.93,359.87 -1366.49,225.84 -240.81,-67.59 -451.47,-187.85 -577.85,-359.97 -120.46,-82.37 -182.88,-295.68 -213.81,-564.17 -59.23,-514.17 -3,-1230.76 -17.72,-1617.7 -5,-131.41 15.79,-107.46 -119.84,-106.45 -822.73,6.27 -1645.48,12.59 -2468.21,18.84 -222.94,1.69 -220.17,-49.62 -217.8,155.63 13.53,1152.21 158.38,2162.77 -669.5,2436.45 -346.49,114.54 -959.07,93.43 -1292.28,-59.55z"/>
  <path class="fil8 str6" d="M71039.41 64812.78c30.44,870.13 -30.74,1776.28 -5.7,2535.75 143.01,199.03 423.09,185.09 646.26,162.67 177.95,-17.89 259.81,-123.5 272.46,-438.75 16.29,-405.71 -5.72,-874.88 -1.57,-1294.02 3.09,-312.14 1.84,-639.3 2.82,-958.72 900.41,-108.51 1800.82,-217.03 2701.23,-325.54 -1048.17,-2708.16 -2096.34,-5416.31 -3144.51,-8124.47 -754.96,1740.8 -1509.92,3481.59 -2264.88,5222.38 325.53,895.79 842.17,1947.78 940.64,2687.38 98.47,739.6 -278.07,514.25 -1.35,547.05 130.9,15.51 387.96,7.04 854.6,-13.73z"/>
 </g>
</svg>
