<?xml version="1.0" encoding="UTF-8"?>
<!DOCTYPE svg PUBLIC "-//W3C//DTD SVG 1.1//EN" "http://www.w3.org/Graphics/SVG/1.1/DTD/svg11.dtd">
<!-- Creator: CorelDRAW (Versão de avaliação) -->
<svg xmlns="http://www.w3.org/2000/svg" xml:space="preserve" width="400mm" height="400mm" version="1.1" style="shape-rendering:geometricPrecision; text-rendering:geometricPrecision; image-rendering:optimizeQuality; fill-rule:evenodd; clip-rule:evenodd"
viewBox="0 0 40000 40000"
 xmlns:xlink="http://www.w3.org/1999/xlink"
 xmlns:xodm="http://www.corel.com/coreldraw/odm/2003">
 <defs>
  <style type="text/css">
   <![CDATA[
    .fil0 {fill:#00BBAD}
    .fil1 {fill:#01BDAE}
   ]]>
  </style>
 </defs>
 <g id="Camada_x0020_1">
  <metadata id="CorelCorpID_0Corel-Layer"/>
  <g id="_1774934518752">
   <path class="fil0" d="M1673.32 19876.27c0,2504.02 746.26,3469.71 2409.23,5132.69 252.2,252.22 3263.72,3414.82 3540.5,3414.82 4809.54,0 4131.83,100.02 7814.26,-3582.41 760.7,-760.7 1460,-1459.99 2220.7,-2220.67 683.98,-684 1437.12,-1706.73 2756.85,-1617.91 1395.96,93.97 1946.98,916.69 2690.08,1659.79l4441.28 4441.44c1548.57,1557.82 2797.21,1319.76 5048.97,1319.76 278.59,0 3249.63,-3123.95 3498.6,-3372.92 593.21,-593.21 1135.78,-1119.53 1597.77,-1837.99 1140.05,-1773.03 1151.39,-4163.5 32.83,-5951.83 -672.07,-1074.51 -3114.04,-3372.41 -4186.47,-4444.84 -1029.05,-1029.05 -388.5,-817.04 -2870.11,-817.04 -1495.91,0 -2360.35,553.97 -3121.59,1319.75l-4441.28 4441.44c-725.09,725.07 -1429.45,1696.92 -2828.21,1696.92 -1237.21,0 -1907.36,-943.65 -2660.62,-1696.92l-5586.15 -5307.75c-1147.52,-634.33 -2947.96,-453.44 -4406.91,-453.44 -278.59,0 -3249.63,3123.95 -3498.59,3372.91 -1162.93,1162.93 -2451.14,2550.88 -2451.14,4504.2z"/>
   <path class="fil1" d="M9131.44 29932.16c82.99,310.82 311.29,438.24 523.7,649.48l1801.73 1801.63c830.53,830.54 1599.64,1599.65 2430.18,2430.19 824.41,824.41 1559.12,1666.99 2462.85,2397.5 2036.72,1646.32 4571.8,1990.35 6760.62,582.95 323.51,-208.04 426.53,-304.84 711.72,-545.26 1261.2,-1063.16 5095.51,-5025.98 6698.94,-6625.13 221.89,-221.31 479.14,-367.45 565.63,-691.36 -3231.62,0 -3902.15,-1011.07 -5928.78,-3037.72l-3351.99 -3351.96c-743.64,-743.65 -720.2,-984.63 -1613.11,-984.63 -510.88,0 -1049.01,624.82 -1305.43,957.14l-2284.24 2324.72c-570.22,452.56 -665.69,604.76 -1110.46,1068.32 -652,679.58 -1818.37,1863.43 -2500.68,2275.85 -1205.05,728.37 -1960.05,748.28 -3860.68,748.28z"/>
   <path class="fil0" d="M9131.44 10490.77c1900.63,0 2655.63,19.91 3860.68,748.28 835.93,505.27 1127.36,1003.56 1838.59,1597.18 13.35,11.14 32.92,26.39 46.17,37.6l334.29 336.12c11.36,13.11 26.68,32.66 38.06,45.73l3602.92 3603.82c1237.02,1623.26 1864.53,1110.58 2702.5,272.35 1214.05,-1214.41 4878.88,-5033.14 5860.54,-5703.74 1064.06,-726.87 1916.95,-937.34 3671.62,-937.34 -83,-310.82 -311.3,-438.23 -523.71,-649.48 -216.47,-215.26 -370.75,-370.66 -586.63,-586.56 -425.5,-425.48 -789.61,-789.58 -1215.09,-1215.07 -1130.98,-1130.98 -4501.33,-4650.5 -5550.28,-5343.62 -1533.38,-1013.18 -3683.36,-1250.01 -5337.69,-474.51 -698.3,327.33 -908.4,473.08 -1477.41,952.75 -903.39,761.53 -1636.75,1562.99 -2467.05,2393.3l-4231.88 4231.83c-221.89,221.32 -479.15,367.45 -565.63,691.36z"/>
  </g>
 </g>
</svg>
